<svg width="69" height="69" fill="none" xmlns="http://www.w3.org/2000/svg"><path d="M15.094 7.188c-5.152 0-9.344 4.191-9.344 9.343v31.555a3.64 3.64 0 0 0 1.999 3.26 3.647 3.647 0 0 0 3.807-.3l12.862-9.358h17.988c5.152 0 9.344-4.192 9.344-9.344V16.53c0-5.152-4.192-9.343-9.344-9.343H15.094Zm4.312 10.062h18.688a2.156 2.156 0 1 1 0 4.313H19.406a2.156 2.156 0 1 1 0-4.313Zm35.219 2.912v12.182c0 6.737-5.481 12.218-12.219 12.218h-17.05l-7.011 5.1c1.573 2.95 4.68 4.963 8.249 4.963h17.988l12.862 9.355a3.632 3.632 0 0 0 3.807.3 3.643 3.643 0 0 0 1.999-3.26V29.47c0-4.91-3.808-8.938-8.625-9.308Zm-35.219 7.15h14.375a2.156 2.156 0 1 1 0 4.313H19.406a2.156 2.156 0 1 1 0-4.313Z" fill="#262626"/></svg>