<svg width="75" height="75" fill="none" xmlns="http://www.w3.org/2000/svg"><path d="M35.22 6.4a5.319 5.319 0 0 0-1.25.128v-.003l-20.652 4.59a7.056 7.056 0 0 0-5.505 6.866v39.038a7.056 7.056 0 0 0 5.505 6.867l20.651 4.59v-.004c3.365.75 6.656-1.891 6.656-5.337v-51.27c0-3.015-2.52-5.415-5.405-5.465Zm10.093 6.1v13.171A7.532 7.532 0 0 1 48.437 25v7.813h7.813c0 4.28-3.531 7.812-7.813 7.812a7.532 7.532 0 0 1-3.124-.671V50H57.03a2.34 2.34 0 0 1 2.344 2.344 2.34 2.34 0 0 1-2.344 2.343H45.313v9.375h14.843c3.856 0 7.032-3.175 7.032-7.03v-37.5c0-3.856-3.176-7.032-7.032-7.032H45.313Zm6.25 9.375c2.078 0 4.06.83 5.53 2.283a7.867 7.867 0 0 1 2.282 5.53h-7.813v-7.813ZM19.53 26.563H25c4.308 0 7.813 3.504 7.813 7.812S29.308 42.188 25 42.188h-3.125v5.468a2.344 2.344 0 1 1-4.688 0v-18.75a2.344 2.344 0 0 1 2.344-2.343Zm2.344 4.687v6.25H25a3.128 3.128 0 0 0 3.125-3.125A3.128 3.128 0 0 0 25 31.25h-3.125Z" fill="#000"/></svg>