<svg width="68" height="69" fill="none" xmlns="http://www.w3.org/2000/svg"><path d="M40.297 9.414a10.264 10.264 0 0 0-4.164 1.109c-.038.02-.076.04-.113.062l-4.018 2.355a2.003 2.003 0 0 0-.127-.002H4.958c-.31-.005-.617.06-.9.19-.283.129-.534.32-.737.558a2.167 2.167 0 0 0-.488 1.753v26.614a2.187 2.187 0 0 0 .485 1.759 2.1 2.1 0 0 0 1.64.751h1.868c.96 0 1.858.383 2.526 1.075 3.312 3.43 10.556 10.93 12.675 13.055 2.445 2.452 5.596 3.47 8.434 2.94 2.3-.43 4.316-2.058 5.324-4.38 2.423-.205 4.285-1.334 5.409-2.681l.086.002s6.394.114 9.952 0c2.475-.077 4.97-.93 7.172-2.889.993-.883 2.188-1.375 3.403-1.375h1.235a2.098 2.098 0 0 0 1.522-.62 2.16 2.16 0 0 0 .633-1.536 2.184 2.184 0 0 0-.633-1.536 2.124 2.124 0 0 0-1.522-.62h-1.235c-2.343 0-4.519.947-6.203 2.445-1.547 1.376-2.775 1.768-4.502 1.822H51.1c-1.16.037-2.777.03-4.297.028 1.084-.907 2.056-2.225 2.656-3.987 2.455-.57 4.536-1.968 5.315-4.15.962-2.692.214-5.946-2.147-8.397-1.789-1.858-9.731-10.838-9.731-10.838a2.12 2.12 0 0 0-1.047-.647 2.096 2.096 0 0 0-1.225.047s-8.093 2.734-14.056 2.734a9.43 9.43 0 0 1-2.324-.275c-.848-.215-1.169-.772-1.243-1.494-.073-.717.16-1.35.872-1.718l6.652-2.802c.085-.036.169-.079.249-.126l7.271-4.265c1.607-.812 3.314-.873 4.862-.244l9.576 3.886a9.064 9.064 0 0 0 3.42.668l7.139.003a2.1 2.1 0 0 0 1.522-.621 2.16 2.16 0 0 0 .633-1.536 2.184 2.184 0 0 0-.633-1.535 2.124 2.124 0 0 0-1.522-.62l-7.136-.004c-.632 0-1.255-.119-1.838-.356l-.005-.003-9.577-3.886a9.89 9.89 0 0 0-4.189-.713Z" fill="#262626"/></svg>