<svg width="56" height="56" fill="none" xmlns="http://www.w3.org/2000/svg"><path d="M11.2 7.467A3.732 3.732 0 0 0 7.467 11.2v33.6a3.732 3.732 0 0 0 3.733 3.733h33.6a3.732 3.732 0 0 0 3.733-3.733V11.2A3.732 3.732 0 0 0 44.8 7.467H11.2Zm8.24 11.437h3.7l6.544 18.415h-3.532l-1.557-4.71h-6.778l-1.582 4.71h-3.329l6.534-18.415Zm1.67 3.51-2.527 7.591h5.246l-2.5-7.59h-.22Zm16.511.664c3.982 0 6.37 2.64 6.37 7.044v1.02h-9.75v.165c.077 2.322 1.416 3.777 3.497 3.777 1.568 0 2.654-.574 3.114-1.608h2.997c-.598 2.54-2.911 4.123-6.202 4.123-4.108 0-6.584-2.72-6.584-7.211s2.515-7.31 6.558-7.31Zm-.01 2.509c-1.89 0-3.216 1.354-3.358 3.394h6.573c-.065-2.067-1.317-3.395-3.215-3.395Z" fill="#000"/></svg>