<svg width="75" height="75" fill="none" xmlns="http://www.w3.org/2000/svg"><path d="M33.658 6.4a5.319 5.319 0 0 0-1.251.128v-.003l-20.652 4.59A7.056 7.056 0 0 0 6.25 17.98v39.038a7.056 7.056 0 0 0 5.505 6.867l20.652 4.59v-.004c3.365.75 6.656-1.891 6.656-5.337v-51.27c0-3.015-2.521-5.415-5.405-5.465ZM43.75 17.267V34.67l5.484 3.876 21.063-14.533c-.14-3.75-3.234-6.747-7.016-6.747H43.75ZM22.656 25.78c4.819 0 8.594 5.49 8.594 12.5s-3.775 12.5-8.594 12.5c-4.819 0-8.593-5.49-8.593-12.5s3.774-12.5 8.593-12.5Zm47.657 3.922L50.546 43.329c-.39.281-.858.421-1.327.421s-.952-.14-1.358-.436l-4.111-2.909v19.05h19.531c3.875 0 7.032-3.157 7.032-7.032v-22.72Zm-47.657.766c-1.843 0-3.906 3.34-3.906 7.812s2.063 7.813 3.906 7.813c1.844 0 3.907-3.34 3.907-7.813 0-4.472-2.063-7.812-3.907-7.812Z" fill="#000"/></svg>