<svg width="75" height="75" fill="none" xmlns="http://www.w3.org/2000/svg"><path d="M36.838 6.354a5.331 5.331 0 0 0-1.245.113l-22.199 4.675a7.054 7.054 0 0 0-5.582 6.879v38.958a7.05 7.05 0 0 0 5.582 6.879l22.199 4.672c3.35.706 6.594-1.927 6.594-5.35V11.82c0-2.995-2.484-5.387-5.35-5.466ZM46.875 12.5v51.562h13.281c3.856 0 7.032-3.175 7.032-7.03v-37.5c0-3.856-3.176-7.032-7.032-7.032H46.875Zm7.031 10.938h4.688a2.344 2.344 0 1 1 0 4.687h-4.688a2.344 2.344 0 1 1 0-4.688ZM19.59 26.56c.755.02 1.486.396 1.926 1.08L25 33.142l3.485-5.502a2.367 2.367 0 0 1 3.25-.717 2.381 2.381 0 0 1 .717 3.25L27.78 37.5l4.672 7.327a2.381 2.381 0 0 1-.717 3.25 2.47 2.47 0 0 1-1.266.36c-.766 0-1.53-.39-1.984-1.077L25 41.858l-3.485 5.502a2.395 2.395 0 0 1-1.984 1.078 2.47 2.47 0 0 1-1.266-.36 2.381 2.381 0 0 1-.717-3.25L22.22 37.5l-4.672-7.327a2.381 2.381 0 0 1 .717-3.25c.41-.258.872-.375 1.324-.363Zm34.317 9.378h4.688a2.344 2.344 0 1 1 0 4.687h-4.688a2.344 2.344 0 1 1 0-4.688Zm0 12.5h4.688a2.344 2.344 0 1 1 0 4.687h-4.688a2.344 2.344 0 1 1 0-4.688Z" fill="#000"/></svg>