<svg width="43" height="43" fill="none" xmlns="http://www.w3.org/2000/svg"><path d="M22.174 4.317a2.566 2.566 0 0 0-2.24.952 2.583 2.583 0 0 0 .394 3.628l2.838 2.283h-14.6a2.583 2.583 0 0 0-2.58 2.58 2.583 2.583 0 0 0 2.58 2.58h6.395L2.715 26.238a2.662 2.662 0 0 0-.98 1.801c-.074.711.13 1.41.58 1.967.45.556 1.09.904 1.8.98.712.074 1.41-.13 1.967-.58l5.957-4.814c.498 6.829 6.85 12.248 14.588 12.248 8.061 0 14.62-5.883 14.62-13.115 0-4.469-2.502-8.582-6.697-11.014L23.56 4.876a2.573 2.573 0 0 0-1.387-.56ZM26.627 17.2c4.267 0 7.74 2.893 7.74 6.45 0 3.557-3.473 6.45-7.74 6.45-4.268 0-7.74-2.893-7.74-6.45 0-3.557 3.472-6.45 7.74-6.45Zm0 1.72c-1.369 0-2.681.453-3.65 1.26-.967.806-1.51 1.9-1.51 3.04 0 1.14.543 2.234 1.51 3.04.969.807 2.281 1.26 3.65 1.26 1.368 0 2.68-.453 3.648-1.26.968-.806 1.512-1.9 1.512-3.04 0-1.14-.544-2.234-1.512-3.04-.967-.807-2.28-1.26-3.648-1.26Z" fill="#000"/></svg>