<svg width="75" height="75" fill="none" xmlns="http://www.w3.org/2000/svg"><path d="M36.838 6.354a5.331 5.331 0 0 0-1.245.113l-22.199 4.675a7.054 7.054 0 0 0-5.582 6.879v38.958a7.05 7.05 0 0 0 5.582 6.879l22.199 4.672c3.35.706 6.594-1.927 6.594-5.35V11.82c0-2.995-2.484-5.387-5.35-5.466ZM46.875 12.5V23.438h10.156a2.34 2.34 0 0 1 2.344 2.343 2.34 2.34 0 0 1-2.344 2.344H46.875v7.813h10.156a2.34 2.34 0 0 1 2.344 2.343 2.34 2.34 0 0 1-2.344 2.344H46.875v7.813h10.156a2.34 2.34 0 0 1 2.344 2.343 2.34 2.34 0 0 1-2.344 2.344H46.875v10.937h13.281c3.856 0 7.032-3.175 7.032-7.03v-37.5c0-3.856-3.176-7.032-7.032-7.032H46.875ZM16.492 26.563a2.356 2.356 0 0 1 2.227 1.953l1.688 10.125 1.624-4.312a2.353 2.353 0 0 1 2.188-1.517c.968 0 1.844.611 2.188 1.517l1.623 4.312 1.688-10.125a2.352 2.352 0 0 1 2.704-1.923 2.352 2.352 0 0 1 1.922 2.704l-3.125 18.75a2.324 2.324 0 0 1-2.093 1.938c-.063.015-.142.015-.22.015a2.33 2.33 0 0 1-2.188-1.517l-2.5-6.656-2.499 6.656a2.32 2.32 0 0 1-2.408 1.502 2.324 2.324 0 0 1-2.093-1.938l-3.125-18.75a2.352 2.352 0 0 1 2.399-2.735Z" fill="#000"/></svg>