<svg width="68" height="69" fill="none" xmlns="http://www.w3.org/2000/svg"><path d="M62.333 34.5c0 15.853-12.71 28.75-28.333 28.75-4.51 0-8.979-1.107-12.984-3.204L10.163 63.12a3.53 3.53 0 0 1-3.458-.923 3.636 3.636 0 0 1-.907-3.506l3.03-11.007A29.128 29.128 0 0 1 5.668 34.5C5.667 18.646 18.377 5.75 34 5.75c15.623 0 28.333 12.896 28.333 28.75Zm-26.208 5.031c0-2.213 1.068-3.225 2.546-4.628 1.706-1.618 3.83-3.63 3.83-7.59 0-4.757-3.813-8.625-8.5-8.625-4.689 0-8.5 3.868-8.5 8.625 0 1.19.95 2.156 2.124 2.156 1.174 0 2.125-.966 2.125-2.157C29.75 24.936 31.657 23 34 23s4.25 1.935 4.25 4.313c0 1.995-.851 2.895-2.48 4.44-1.736 1.644-3.895 3.691-3.895 7.778 0 1.19.95 2.157 2.125 2.157s2.125-.967 2.125-2.157ZM34 44.563c-1.565 0-2.833 1.286-2.833 2.874 0 1.589 1.268 2.876 2.833 2.876 1.566 0 2.833-1.287 2.833-2.876 0-1.588-1.267-2.874-2.833-2.874Z" fill="#262626"/></svg>