<svg width="72" height="72" fill="none" xmlns="http://www.w3.org/2000/svg"><path d="M18.75 9C13.392 9 9 13.392 9 18.75v34.5C9 58.608 13.392 63 18.75 63h34.5c5.358 0 9.75-4.392 9.75-9.75v-34.5C63 13.392 58.608 9 53.25 9h-34.5ZM13.5 24h45v29.25a5.218 5.218 0 0 1-5.25 5.25h-34.5a5.218 5.218 0 0 1-5.25-5.25V24Zm12.727 8.977a2.25 2.25 0 0 0-1.568 3.864l4.41 4.409-4.41 4.41a2.248 2.248 0 0 0-.032 3.214 2.25 2.25 0 0 0 3.214-.033l6-6a2.25 2.25 0 0 0 0-3.182l-6-6a2.25 2.25 0 0 0-1.614-.682ZM38.25 45a2.251 2.251 0 1 0 0 4.5h9a2.251 2.251 0 1 0 0-4.5h-9Z" fill="#0C0C0C"/></svg>