<svg width="50" height="50" fill="none" xmlns="http://www.w3.org/2000/svg"><path d="M23.02 31.146 19.167 35c-.812.813-2.104.813-2.937.02-.23-.228-.458-.437-.688-.666a59.21 59.21 0 0 1-5.812-6.812c-1.708-2.375-3.083-4.75-4.083-7.105-.98-2.375-1.48-4.645-1.48-6.812 0-1.417.25-2.77.75-4.02.5-1.272 1.292-2.438 2.396-3.48 1.334-1.313 2.792-1.958 4.334-1.958.583 0 1.166.125 1.687.375.542.25 1.021.625 1.396 1.166l4.833 6.813c.375.52.646 1 .834 1.458.187.438.291.875.291 1.271 0 .5-.146 1-.437 1.48-.271.478-.667.978-1.167 1.478L17.5 19.854c-.23.23-.334.5-.334.834 0 .166.021.312.063.479.063.166.125.291.167.416.375.688 1.02 1.584 1.937 2.667a71.312 71.312 0 0 0 3.021 3.292c.208.208.438.416.646.625.833.812.854 2.145.02 2.979Zm22.75 7.041a5.292 5.292 0 0 1-.52 2.271 8.594 8.594 0 0 1-1.417 2.125c-1.02 1.125-2.146 1.938-3.416 2.459-.021 0-.042.02-.063.02-1.23.5-2.563.771-4 .771-2.125 0-4.396-.5-6.792-1.52-2.396-1.021-4.791-2.396-7.166-4.126-.813-.604-1.625-1.208-2.396-1.854l6.812-6.812c.584.437 1.104.77 1.542 1 .104.041.23.104.375.166.167.063.333.084.52.084.355 0 .626-.125.855-.354l1.583-1.563c.521-.52 1.021-.916 1.5-1.166.48-.292.959-.438 1.48-.438.395 0 .812.083 1.27.27.459.188.938.46 1.459.813l6.895 4.896c.542.375.917.813 1.146 1.334.209.52.334 1.041.334 1.624Z" fill="#000"/></svg>