<svg width="72" height="72" fill="none" xmlns="http://www.w3.org/2000/svg"><path d="M30.75 9h-18A3.755 3.755 0 0 0 9 12.75v18a3.755 3.755 0 0 0 3.75 3.75h18a3.755 3.755 0 0 0 3.75-3.75v-18A3.755 3.755 0 0 0 30.75 9Zm28.5 0h-18a3.755 3.755 0 0 0-3.75 3.75v18a3.755 3.755 0 0 0 3.75 3.75h18A3.755 3.755 0 0 0 63 30.75v-18A3.755 3.755 0 0 0 59.25 9Zm-28.5 28.5h-18A3.755 3.755 0 0 0 9 41.25v18A3.755 3.755 0 0 0 12.75 63h18a3.755 3.755 0 0 0 3.75-3.75v-18a3.755 3.755 0 0 0-3.75-3.75Zm28.5 0h-18a3.755 3.755 0 0 0-3.75 3.75v18A3.755 3.755 0 0 0 41.25 63h18A3.755 3.755 0 0 0 63 59.25v-18a3.755 3.755 0 0 0-3.75-3.75Z" fill="#0C0C0C"/></svg>