<svg width="56" height="56" fill="none" xmlns="http://www.w3.org/2000/svg"><path d="M15.75 7C10.938 7 7 10.938 7 15.75v24.5C7 45.062 10.938 49 15.75 49h24.5c4.812 0 8.75-3.938 8.75-8.75v-24.5C49 10.938 45.062 7 40.25 7h-24.5Zm3.5 10.5h2.917c3.535 0 6.416 2.882 6.416 6.417 0 3.535-2.881 6.416-6.416 6.416H21v6.417c0 .968-.782 1.75-1.75 1.75s-1.75-.782-1.75-1.75v-17.5c0-.968.782-1.75 1.75-1.75ZM21 21v5.833h1.167a2.918 2.918 0 0 0 0-5.833H21Zm12.893 3.5h1.574c1.68 0 3.22 1.062 3.815 2.625.35.91-.104 1.913-1.014 2.263a1.744 1.744 0 0 1-2.254-1.014.585.585 0 0 0-.547-.374h-1.574a.881.881 0 0 0-.875.875c0 .478.396.875.875.875h1.399a4.377 4.377 0 0 1 4.375 4.375 4.377 4.377 0 0 1-4.375 4.375h-2.51c-.99 0-1.948-.36-2.695-1.014a4.883 4.883 0 0 1-.419-.433 1.755 1.755 0 0 1 .21-2.472 1.77 1.77 0 0 1 2.474.22c.117.117.244.199.43.199h2.51a.881.881 0 0 0 .875-.875.881.881 0 0 0-.875-.875h-1.4a4.377 4.377 0 0 1-4.374-4.375 4.377 4.377 0 0 1 4.375-4.375Z" fill="#000"/></svg>