<svg width="69" height="69" fill="none" xmlns="http://www.w3.org/2000/svg"><g clip-path="url('#clip0_114_223')"><path d="M31.148 8.312a7.077 7.077 0 0 0-4.45-1.099c-3.773.318-6.573 3.673-6.573 7.461V15.516c-7.888 2.466-11.5 8.621-11.5 13.593 0 1.814.413 3.634 1.136 5.27 2.53-2.627 5.97-4.191 9.358-4.191 5.517 0 8.878 3.382 9.019 3.526a2.157 2.157 0 0 1-3.087 3.01c-.08-.08-2.288-2.224-5.932-2.224-2.346 0-4.878 1.238-6.607 3.231-1.228 1.415-2.45 3.597-2.45 6.831 0 5.37 5.347 9.666 10.063 9.965a7.189 7.189 0 0 0 7.188 7.285c1.904 0 3.623-.75 4.906-1.963.556-.528.843-1.28.843-2.046V11.907c0-1.442-.701-2.816-1.914-3.595ZM28.03 51.75a2.156 2.156 0 0 1-2.156-2.156A3.598 3.598 0 0 0 22.281 46a2.156 2.156 0 1 1 0-4.313c4.36 0 7.907 3.548 7.907 7.907 0 1.19-.965 2.156-2.157 2.156ZM23.72 25.875a2.156 2.156 0 1 1 0-4.313 2.159 2.159 0 0 0 2.156-2.156 2.156 2.156 0 1 1 4.313 0 6.477 6.477 0 0 1-6.47 6.469Zm26.162 4.313c3.388 0 6.828 1.564 9.358 4.191.723-1.636 1.136-3.455 1.136-5.27 0-4.972-3.612-11.127-11.5-13.593V14.674c0-3.786-2.8-7.143-6.574-7.46a7.089 7.089 0 0 0-4.449 1.1c-1.213.777-1.914 2.151-1.914 3.593v45.898c0 .763.284 1.514.838 2.038 1.75 1.662 4.322 2.458 7.066 1.653 3.028-.888 5.033-3.775 5.033-6.928v-.04c4.716-.3 10.063-4.596 10.063-9.965 0-3.235-1.222-5.417-2.45-6.832-1.728-1.993-4.26-3.231-6.607-3.231-3.645 0-5.852 2.145-5.93 2.224a2.155 2.155 0 1 1-3.087-3.01c.14-.144 3.5-3.526 9.017-3.526Zm-3.162 11.5a2.156 2.156 0 1 1 0 4.312 3.598 3.598 0 0 0-3.594 3.594 2.156 2.156 0 1 1-4.313 0c0-4.359 3.547-7.907 7.907-7.907Zm-7.907-22.282a2.156 2.156 0 1 1 4.313 0c0 1.19.967 2.157 2.156 2.157a2.156 2.156 0 1 1 0 4.312 6.477 6.477 0 0 1-6.468-6.469ZM58.939 7.188a2.875 2.875 0 1 0 0 5.75 2.875 2.875 0 0 0 0-5.75ZM10.062 56.063a2.875 2.875 0 1 0 0 5.75 2.875 2.875 0 0 0 0-5.75Zm48.876 0a2.875 2.875 0 1 0 0 5.749 2.875 2.875 0 0 0 0-5.75ZM66.124 23a2.875 2.875 0 1 0 0 5.75 2.875 2.875 0 0 0 0-5.75Zm0 17.25a2.875 2.875 0 1 0 0 5.75 2.875 2.875 0 0 0 0-5.75ZM2.875 23a2.875 2.875 0 1 0 0 5.75 2.875 2.875 0 0 0 0-5.75Zm0 17.25a2.875 2.875 0 1 0 0 5.75 2.875 2.875 0 0 0 0-5.75Zm7.188-33.062a2.875 2.875 0 1 0 0 5.75 2.875 2.875 0 0 0 0-5.75Z" fill="#262626"/></g><defs><clipPath id="clip0_114_223"><path fill="#fff" d="M0 0h69v69H0z"/></clipPath></defs></svg>