<svg width="38" height="38" fill="none" xmlns="http://www.w3.org/2000/svg"><path fill-rule="evenodd" clip-rule="evenodd" d="m1.604 36.453 7.014-1.84.677.401a18.508 18.508 0 0 0 9.433 2.583h.008c10.215 0 18.53-8.314 18.534-18.533a18.422 18.422 0 0 0-5.424-13.112A18.408 18.408 0 0 0 18.743.516C8.52.516.206 8.83.202 19.05a18.489 18.489 0 0 0 2.833 9.863l.441.701-1.872 6.84Zm27.603-12.587c.388.188.65.314.763.501.139.233.139 1.348-.325 2.65-.465 1.301-2.69 2.49-3.761 2.65-.96.143-2.175.202-3.51-.222a31.98 31.98 0 0 1-3.176-1.173c-5.223-2.256-8.753-7.318-9.42-8.275a6.696 6.696 0 0 0-.098-.138l-.004-.006c-.295-.394-2.27-3.03-2.27-5.758 0-2.566 1.26-3.912 1.84-4.531l.11-.117c.51-.558 1.114-.697 1.485-.697.372 0 .743.003 1.068.02h.125c.324-.001.73-.003 1.129.956l.615 1.493c.48 1.168 1.01 2.457 1.102 2.644.14.279.233.604.047.976l-.079.159c-.139.285-.242.494-.478.77-.093.11-.19.226-.286.343a9.191 9.191 0 0 1-.55.633c-.279.278-.57.58-.244 1.138.325.557 1.443 2.382 3.1 3.86 1.78 1.587 3.327 2.259 4.112 2.6.153.066.277.12.368.165.557.279.882.232 1.207-.14.325-.371 1.393-1.627 1.764-2.184.371-.558.743-.465 1.254-.28.51.187 3.25 1.535 3.807 1.814l.305.149Z" fill="#000"/></svg>