<svg width="73" height="73" fill="none" xmlns="http://www.w3.org/2000/svg"><path fill-rule="evenodd" clip-rule="evenodd" d="M36.5 0C16.342 0 0 16.342 0 36.5S16.342 73 36.5 73 73 56.658 73 36.5 56.658 0 36.5 0ZM17.522 30.23h8.272v24.854h-8.272V30.231Zm8.817-7.687c-.054-2.437-1.796-4.293-4.626-4.293s-4.68 1.856-4.68 4.293c0 2.386 1.796 4.296 4.573 4.296h.052c2.885 0 4.681-1.91 4.681-4.296Zm19.762 7.104c5.443 0 9.524 3.553 9.524 11.187v14.25h-8.272V41.787c0-3.34-1.197-5.618-4.191-5.618-2.285 0-3.646 1.536-4.244 3.02-.219.532-.273 1.273-.273 2.016v13.88h-8.272s.109-22.521 0-24.853h8.272v3.52c1.098-1.693 3.064-4.105 7.456-4.105Z" fill="#000"/></svg>