<svg width="67" height="77" fill="none" xmlns="http://www.w3.org/2000/svg"><path d="M32.995 0 0 19.778v38.215l1.555.862 31.557 17.539 32.995-19.778V18.4L32.995 0Zm.117 6.973L60.098 21.97v31.206L32.995 69.421 6.01 54.423V23.217L33.112 6.973Zm-.058 13.07c-5.76 0-10.462 2.284-13.516 5.745-3.055 3.46-4.514 7.955-4.514 12.409 0 4.454 1.459 8.949 4.514 12.409 3.054 3.46 7.756 5.744 13.516 5.744 9.921 0 18.029-8.163 18.029-18.153 0-9.99-8.108-18.153-18.03-18.153Zm0 6.052c6.673 0 12.02 5.382 12.02 12.102 0 6.72-5.346 12.102-12.02 12.102-4.257 0-7.068-1.499-9.02-3.711-1.954-2.213-3-5.282-3-8.391 0-3.11 1.046-6.179 3-8.391 1.953-2.213 4.763-3.711 9.02-3.711Z" fill="#000"/></svg>