<svg width="69" height="69" viewBox="0 0 69 69" fill="none" xmlns="http://www.w3.org/2000/svg">
<g clip-path="url(#clip0_114_223)">
<path d="M31.1477 8.31166C29.8827 7.49948 28.3475 7.07398 26.6987 7.21341C22.9252 7.5311 20.125 10.8862 20.125 14.674V15.4532V15.5164C12.2374 17.9817 8.625 24.1371 8.625 29.1094C8.625 30.9235 9.03756 32.7434 9.76062 34.3793C12.2906 31.7515 15.7306 30.1875 19.1188 30.1875C24.6359 30.1875 27.9967 33.57 28.1376 33.7137C28.9699 34.5662 28.9513 35.9303 28.1003 36.7627C27.2464 37.5935 25.8836 37.5763 25.0513 36.7239C24.9708 36.6448 22.7628 34.5 19.1188 34.5C16.7728 34.5 14.2413 35.7377 12.512 37.7315C11.2844 39.146 10.0625 41.3282 10.0625 44.5625C10.0625 49.9316 15.4086 54.2283 20.125 54.5273C20.0733 58.5422 23.3105 61.8125 27.3125 61.8125C29.2172 61.8125 30.9364 61.0622 32.2187 59.8489C32.775 59.3213 33.0625 58.5695 33.0625 57.8033V11.9069C33.0625 10.465 32.361 9.09079 31.1477 8.31166ZM28.0312 51.75C26.8396 51.75 25.875 50.784 25.875 49.5938C25.875 47.6115 24.2621 46 22.2812 46C21.0896 46 20.125 45.034 20.125 43.8438C20.125 42.6535 21.0896 41.6875 22.2812 41.6875C26.6412 41.6875 30.1875 45.2353 30.1875 49.5938C30.1875 50.784 29.2229 51.75 28.0312 51.75ZM23.7188 25.875C22.5271 25.875 21.5625 24.909 21.5625 23.7188C21.5625 22.5285 22.5271 21.5625 23.7188 21.5625C24.9076 21.5625 25.875 20.5951 25.875 19.4063C25.875 18.216 26.8396 17.25 28.0312 17.25C29.2229 17.25 30.1875 18.216 30.1875 19.4063C30.1875 22.9727 27.2852 25.875 23.7188 25.875ZM49.8813 30.1875C53.2694 30.1875 56.7094 31.7515 59.2394 34.3793C59.9624 32.7434 60.375 30.9235 60.375 29.1094C60.375 24.1371 56.7626 17.9817 48.875 15.5164V15.4532V14.674C48.875 10.8877 46.0748 7.5311 42.3013 7.21485C40.6525 7.07685 39.1187 7.50091 37.8523 8.3131C36.639 9.09079 35.9375 10.465 35.9375 11.9069V57.8048C35.9375 58.5681 36.2221 59.3185 36.7756 59.8432C38.5264 61.5049 41.0981 62.3013 43.8423 61.4963C46.8697 60.6079 48.875 57.7214 48.875 54.5675V54.5273C53.5914 54.2283 58.9375 49.9316 58.9375 44.5625C58.9375 41.3282 57.7156 39.146 56.488 37.7315C54.7601 35.7377 52.2287 34.5 49.8813 34.5C46.2358 34.5 44.0292 36.6448 43.9501 36.7239C43.1178 37.5777 41.7551 37.5935 40.9012 36.7627C40.0487 35.9303 40.0315 34.5662 40.8638 33.7137C41.0033 33.57 44.3641 30.1875 49.8813 30.1875ZM46.7188 41.6875C47.9104 41.6875 48.875 42.6535 48.875 43.8438C48.875 45.034 47.9104 46 46.7188 46C44.7379 46 43.125 47.6115 43.125 49.5938C43.125 50.784 42.1604 51.75 40.9688 51.75C39.7771 51.75 38.8125 50.784 38.8125 49.5938C38.8125 45.2353 42.3588 41.6875 46.7188 41.6875ZM38.8125 19.4063C38.8125 18.216 39.7771 17.25 40.9688 17.25C42.1604 17.25 43.125 18.216 43.125 19.4063C43.125 20.5951 44.0924 21.5625 45.2812 21.5625C46.4729 21.5625 47.4375 22.5285 47.4375 23.7188C47.4375 24.909 46.4729 25.875 45.2812 25.875C41.7148 25.875 38.8125 22.9727 38.8125 19.4063ZM58.9375 7.18754C58.175 7.18754 57.4437 7.49044 56.9046 8.02961C56.3654 8.56877 56.0625 9.30004 56.0625 10.0625C56.0625 10.825 56.3654 11.5563 56.9046 12.0955C57.4437 12.6346 58.175 12.9375 58.9375 12.9375C59.7 12.9375 60.4313 12.6346 60.9704 12.0955C61.5096 11.5563 61.8125 10.825 61.8125 10.0625C61.8125 9.30004 61.5096 8.56877 60.9704 8.02961C60.4313 7.49044 59.7 7.18754 58.9375 7.18754ZM10.0625 56.0625C9.3 56.0625 8.56873 56.3654 8.02957 56.9046C7.4904 57.4438 7.1875 58.175 7.1875 58.9375C7.1875 59.7 7.4904 60.4313 8.02957 60.9705C8.56873 61.5096 9.3 61.8125 10.0625 61.8125C10.825 61.8125 11.5563 61.5096 12.0954 60.9705C12.6346 60.4313 12.9375 59.7 12.9375 58.9375C12.9375 58.175 12.6346 57.4438 12.0954 56.9046C11.5563 56.3654 10.825 56.0625 10.0625 56.0625ZM58.9375 56.0625C58.175 56.0625 57.4437 56.3654 56.9046 56.9046C56.3654 57.4438 56.0625 58.175 56.0625 58.9375C56.0625 59.7 56.3654 60.4313 56.9046 60.9705C57.4437 61.5096 58.175 61.8125 58.9375 61.8125C59.7 61.8125 60.4313 61.5096 60.9704 60.9705C61.5096 60.4313 61.8125 59.7 61.8125 58.9375C61.8125 58.175 61.5096 57.4438 60.9704 56.9046C60.4313 56.3654 59.7 56.0625 58.9375 56.0625ZM66.125 23C65.3625 23 64.6312 23.3029 64.0921 23.8421C63.5529 24.3813 63.25 25.1125 63.25 25.875C63.25 26.6375 63.5529 27.3688 64.0921 27.908C64.6312 28.4471 65.3625 28.75 66.125 28.75C66.8875 28.75 67.6188 28.4471 68.1579 27.908C68.6971 27.3688 69 26.6375 69 25.875C69 25.1125 68.6971 24.3813 68.1579 23.8421C67.6188 23.3029 66.8875 23 66.125 23ZM66.125 40.25C65.3625 40.25 64.6312 40.5529 64.0921 41.0921C63.5529 41.6313 63.25 42.3625 63.25 43.125C63.25 43.8875 63.5529 44.6188 64.0921 45.158C64.6312 45.6971 65.3625 46 66.125 46C66.8875 46 67.6188 45.6971 68.1579 45.158C68.6971 44.6188 69 43.8875 69 43.125C69 42.3625 68.6971 41.6313 68.1579 41.0921C67.6188 40.5529 66.8875 40.25 66.125 40.25ZM2.875 23C2.1125 23 1.38124 23.3029 0.842068 23.8421C0.302901 24.3813 0 25.1125 0 25.875C0 26.6375 0.302901 27.3688 0.842068 27.908C1.38124 28.4471 2.1125 28.75 2.875 28.75C3.6375 28.75 4.36877 28.4471 4.90793 27.908C5.4471 27.3688 5.75 26.6375 5.75 25.875C5.75 25.1125 5.4471 24.3813 4.90793 23.8421C4.36877 23.3029 3.6375 23 2.875 23ZM2.875 40.25C2.1125 40.25 1.38124 40.5529 0.842068 41.0921C0.302901 41.6313 0 42.3625 0 43.125C0 43.8875 0.302901 44.6188 0.842068 45.158C1.38124 45.6971 2.1125 46 2.875 46C3.6375 46 4.36877 45.6971 4.90793 45.158C5.4471 44.6188 5.75 43.8875 5.75 43.125C5.75 42.3625 5.4471 41.6313 4.90793 41.0921C4.36877 40.5529 3.6375 40.25 2.875 40.25ZM10.0625 7.18754C9.3 7.18754 8.56873 7.49044 8.02957 8.02961C7.4904 8.56877 7.1875 9.30004 7.1875 10.0625C7.1875 10.825 7.4904 11.5563 8.02957 12.0955C8.56873 12.6346 9.3 12.9375 10.0625 12.9375C10.825 12.9375 11.5563 12.6346 12.0954 12.0955C12.6346 11.5563 12.9375 10.825 12.9375 10.0625C12.9375 9.30004 12.6346 8.56877 12.0954 8.02961C11.5563 7.49044 10.825 7.18754 10.0625 7.18754Z" fill="#262626"/>
</g>
<defs>
<clipPath id="clip0_114_223">
<rect width="69" height="69" fill="white"/>
</clipPath>
</defs>
</svg>
