<svg width="60" height="60" viewBox="0 0 60 60" fill="none" xmlns="http://www.w3.org/2000/svg">
<path d="M51.5527 21.125C48.9277 9.575 38.8527 4.375 30.0027 4.375H29.9777C21.1527 4.375 11.0527 9.55 8.42768 21.1C5.50268 34 13.4027 44.925 20.5527 51.8C23.087 54.253 26.4757 55.6246 30.0027 55.625C33.4027 55.625 36.8027 54.35 39.4277 51.8C46.5777 44.925 54.4777 34.025 51.5527 21.125ZM30.0027 33.65C28.9685 33.65 27.9445 33.4463 26.989 33.0506C26.0336 32.6548 25.1655 32.0747 24.4342 31.3435C23.703 30.6122 23.1229 29.7441 22.7271 28.7886C22.3314 27.8332 22.1277 26.8092 22.1277 25.775C22.1277 24.7408 22.3314 23.7168 22.7271 22.7614C23.1229 21.8059 23.703 20.9378 24.4342 20.2065C25.1655 19.4753 26.0336 18.8952 26.989 18.4994C27.9445 18.1037 28.9685 17.9 30.0027 17.9C32.0913 17.9 34.0943 18.7297 35.5711 20.2065C37.048 21.6834 37.8777 23.6864 37.8777 25.775C37.8777 27.8636 37.048 29.8666 35.5711 31.3435C34.0943 32.8203 32.0913 33.65 30.0027 33.65Z" fill="black"/>
</svg>
