<svg width="56" height="56" viewBox="0 0 56 56" fill="none" xmlns="http://www.w3.org/2000/svg">
<path d="M15.75 7C10.9381 7 7 10.9381 7 15.75V40.25C7 45.0619 10.9381 49 15.75 49H40.25C45.0619 49 49 45.0619 49 40.25V15.75C49 10.9381 45.0619 7 40.25 7H15.75ZM19.25 17.5H22.1667C25.7017 17.5 28.5833 20.3817 28.5833 23.9167C28.5833 27.4517 25.7017 30.3333 22.1667 30.3333H21V36.75C21 37.7183 20.2183 38.5 19.25 38.5C18.2817 38.5 17.5 37.7183 17.5 36.75V19.25C17.5 18.2817 18.2817 17.5 19.25 17.5ZM21 21V26.8333H22.1667C23.7767 26.8333 25.0833 25.5267 25.0833 23.9167C25.0833 22.3067 23.7767 21 22.1667 21H21ZM33.8926 24.5H35.4671C37.1471 24.5 38.6866 25.5617 39.2816 27.125C39.6316 28.035 39.1776 29.0377 38.2676 29.3877C37.3692 29.7377 36.3523 29.272 36.014 28.3737C35.944 28.187 35.7471 28 35.4671 28H33.8926C33.4142 28 33.0176 28.3967 33.0176 28.875C33.0176 29.3533 33.4142 29.75 33.8926 29.75H35.2917C37.7067 29.75 39.6667 31.71 39.6667 34.125C39.6667 36.54 37.7067 38.5 35.2917 38.5H32.7829C31.7912 38.5 30.8339 38.1393 30.0872 37.486C29.9356 37.346 29.7963 37.2047 29.668 37.0531C29.038 36.3064 29.1426 35.2107 29.8776 34.5807C30.6243 33.9624 31.7222 34.0668 32.3522 34.8018C32.4689 34.9184 32.5962 35 32.7829 35H35.2917C35.77 35 36.1667 34.6033 36.1667 34.125C36.1667 33.6467 35.77 33.25 35.2917 33.25H33.8926C31.4776 33.25 29.5176 31.29 29.5176 28.875C29.5176 26.46 31.4776 24.5 33.8926 24.5Z" fill="black"/>
</svg>
