<svg width="72" height="72" viewBox="0 0 72 72" fill="none" xmlns="http://www.w3.org/2000/svg">
<path d="M30.75 9H12.75C10.683 9 9 10.683 9 12.75V30.75C9 32.817 10.683 34.5 12.75 34.5H30.75C32.817 34.5 34.5 32.817 34.5 30.75V12.75C34.5 10.683 32.817 9 30.75 9ZM59.25 9H41.25C39.183 9 37.5 10.683 37.5 12.75V30.75C37.5 32.817 39.183 34.5 41.25 34.5H59.25C61.317 34.5 63 32.817 63 30.75V12.75C63 10.683 61.317 9 59.25 9ZM30.75 37.5H12.75C10.683 37.5 9 39.183 9 41.25V59.25C9 61.317 10.683 63 12.75 63H30.75C32.817 63 34.5 61.317 34.5 59.25V41.25C34.5 39.183 32.817 37.5 30.75 37.5ZM59.25 37.5H41.25C39.183 37.5 37.5 39.183 37.5 41.25V59.25C37.5 61.317 39.183 63 41.25 63H59.25C61.317 63 63 61.317 63 59.25V41.25C63 39.183 61.317 37.5 59.25 37.5Z" fill="#0C0C0C"/>
</svg>
