<svg width="68" height="69" viewBox="0 0 68 69" fill="none" xmlns="http://www.w3.org/2000/svg">
<path d="M40.2974 9.41399C38.8741 9.48085 37.4561 9.85182 36.1332 10.523C36.0948 10.5424 36.0569 10.563 36.0198 10.5848L32.0022 12.9404C31.9598 12.9381 31.9173 12.9372 31.8749 12.9376H4.95823C4.64809 12.9335 4.34084 12.9984 4.05805 13.1277C3.77525 13.257 3.52378 13.4475 3.32127 13.6859C3.11877 13.9243 2.97014 14.2048 2.88583 14.5077C2.80152 14.8105 2.78357 15.1285 2.83323 15.4391V42.0525C2.78222 42.3638 2.79915 42.6827 2.88285 42.9866C2.96654 43.2905 3.11495 43.5721 3.3176 43.8115C3.52026 44.0509 3.77221 44.2422 4.05569 44.372C4.33917 44.5017 4.64727 44.5668 4.95823 44.5626H6.82591C7.78542 44.5626 8.68405 44.9456 9.35211 45.6379C12.6638 49.0688 19.9077 56.5675 22.0274 58.6933C24.4716 61.1454 27.6233 62.1631 30.461 61.6329C32.7619 61.203 34.7771 59.5746 35.7846 57.253C38.2079 57.0478 40.0699 55.9186 41.1939 54.5717C41.2225 54.5732 41.2511 54.5742 41.2797 54.5745C41.2797 54.5745 47.6744 54.6877 51.2323 54.5745C53.7074 54.4966 56.2026 53.6442 58.4042 51.6855C59.3974 50.8025 60.5921 50.3097 61.8075 50.3097H63.0416C63.3231 50.3138 63.6027 50.261 63.864 50.1545C64.1253 50.0479 64.3632 49.8897 64.5637 49.6891C64.7642 49.4885 64.9235 49.2494 65.0322 48.9858C65.1409 48.7222 65.1968 48.4393 65.1968 48.1535C65.1968 47.8677 65.1409 47.5848 65.0322 47.3212C64.9235 47.0576 64.7642 46.8185 64.5637 46.6179C64.3632 46.4173 64.1253 46.2591 63.864 46.1525C63.6027 46.046 63.3231 45.9932 63.0416 45.9972H61.8075C59.4642 45.9972 57.2884 46.9452 55.6041 48.4427C54.0571 49.819 52.829 50.2105 51.1023 50.2648H51.0995C49.9393 50.3018 48.3234 50.2942 46.8025 50.2929C47.8865 49.3862 48.8587 48.0681 49.4587 46.3061C51.9138 45.7366 53.9946 44.3376 54.774 42.1564C55.7359 39.4643 54.9877 36.2102 52.6268 33.7588C50.838 31.9005 42.8956 22.9214 42.8956 22.9214C42.6169 22.606 42.2529 22.3807 41.8489 22.2739C41.4449 22.167 41.0189 22.1833 40.6239 22.3206C40.6239 22.3206 32.5309 25.0552 26.5679 25.0552C25.685 25.0552 24.917 24.9503 24.2437 24.7801C23.3957 24.5652 23.0753 24.008 23.0014 23.2864C22.9279 22.5689 23.1606 21.9355 23.8729 21.5682L30.5246 18.7662C30.6103 18.7296 30.6935 18.6874 30.7737 18.6398L38.0451 14.3751C39.6518 13.5635 41.3589 13.5024 42.9066 14.1308L52.483 18.0165C53.5713 18.4602 54.7333 18.6844 55.9029 18.6847L63.0416 18.6876C63.3231 18.6916 63.6027 18.6388 63.864 18.5323C64.1253 18.4257 64.3632 18.2675 64.5637 18.0669C64.7642 17.8663 64.9235 17.6272 65.0322 17.3636C65.1409 17.1 65.1968 16.8171 65.1968 16.5313C65.1968 16.2455 65.1409 15.9626 65.0322 15.699C64.9235 15.4354 64.7642 15.1963 64.5637 14.9957C64.3632 14.7951 64.1253 14.6369 63.864 14.5303C63.6027 14.4238 63.3231 14.371 63.0416 14.3751L55.9057 14.3722C55.2742 14.3722 54.6509 14.2531 54.0684 14.0157L54.0629 14.0129L44.4865 10.1271C43.1485 9.58384 41.7207 9.34714 40.2974 9.41399Z" fill="#262626"/>
</svg>
