<svg width="68" height="69" viewBox="0 0 68 69" fill="none" xmlns="http://www.w3.org/2000/svg">
<path d="M62.3334 34.5C62.3334 50.3527 49.6231 63.25 34.0001 63.25C29.4908 63.25 25.0212 62.1431 21.0163 60.0458L10.1632 63.1206C9.85016 63.2069 9.53142 63.25 9.21408 63.25C8.28617 63.25 7.37808 62.8791 6.70516 62.1978C5.80275 61.2806 5.45566 59.938 5.7985 58.6917L8.82875 47.6848C6.75758 43.6166 5.66675 39.0784 5.66675 34.5C5.66675 18.6458 18.3771 5.75 34.0001 5.75C49.6231 5.75 62.3334 18.6458 62.3334 34.5ZM36.1251 39.5312C36.1251 37.3175 37.1933 36.3055 38.6708 34.9025C40.3765 33.2853 42.5001 31.2728 42.5001 27.3125C42.5001 22.5558 38.6878 18.6875 34.0001 18.6875C29.3123 18.6875 25.5001 22.5558 25.5001 27.3125C25.5001 28.5028 26.4507 29.4688 27.6251 29.4688C28.7995 29.4688 29.7501 28.5028 29.7501 27.3125C29.7501 24.9349 31.6569 23 34.0001 23C36.3432 23 38.2501 24.9349 38.2501 27.3125C38.2501 29.3078 37.3987 30.2076 35.7695 31.7529C34.0341 33.3974 31.8751 35.4444 31.8751 39.5312C31.8751 40.7215 32.8257 41.6875 34.0001 41.6875C35.1745 41.6875 36.1251 40.7215 36.1251 39.5312ZM34.0001 44.5625C32.4347 44.5625 31.1667 45.8491 31.1667 47.4375C31.1667 49.0259 32.4347 50.3125 34.0001 50.3125C35.5655 50.3125 36.8334 49.0259 36.8334 47.4375C36.8334 45.8491 35.5655 44.5625 34.0001 44.5625Z" fill="#262626"/>
</svg>
