<svg width="43" height="43" viewBox="0 0 43 43" fill="none" xmlns="http://www.w3.org/2000/svg">
<path d="M22.1738 4.31674C22.006 4.30185 21.8357 4.30204 21.6648 4.3201C20.9794 4.39492 20.3648 4.73249 19.9331 5.26913C19.0412 6.37767 19.2184 8.00543 20.3278 8.89725L23.1665 11.1799H8.56662C7.14418 11.1799 5.98662 12.3375 5.98662 13.7599C5.98662 15.1824 7.14418 16.3399 8.56662 16.3399H14.9612L2.71459 26.2383C2.15817 26.6881 1.81101 27.3277 1.73533 28.039C1.66051 28.7502 1.86504 29.4495 2.31482 30.0059C2.7646 30.5623 3.40422 30.9095 4.11544 30.9851C4.82666 31.06 5.52594 30.8554 6.08236 30.4056L12.0385 25.5917C12.5365 32.4209 18.8892 37.8399 26.6266 37.8399C34.6883 37.8399 41.2466 31.9567 41.2466 24.7249C41.2466 20.2564 38.7448 16.1433 34.5497 13.7112L23.5612 4.87608C23.1581 4.55229 22.677 4.36141 22.1738 4.31674ZM26.6266 17.1999C30.8939 17.1999 34.3666 20.093 34.3666 23.6499C34.3666 27.2069 30.8939 30.0999 26.6266 30.0999C22.3593 30.0999 18.8866 27.2069 18.8866 23.6499C18.8866 20.093 22.3593 17.1999 26.6266 17.1999ZM26.6266 18.9199C25.2581 18.9199 23.9456 19.373 22.9779 20.1794C22.0103 20.9858 21.4666 22.0795 21.4666 23.2199C21.4666 24.3604 22.0103 25.4541 22.9779 26.2605C23.9456 27.0669 25.2581 27.5199 26.6266 27.5199C27.9951 27.5199 29.3076 27.0669 30.2753 26.2605C31.243 25.4541 31.7866 24.3604 31.7866 23.2199C31.7866 22.0795 31.243 20.9858 30.2753 20.1794C29.3076 19.373 27.9951 18.9199 26.6266 18.9199Z" fill="black"/>
</svg>
