<svg width="50" height="50" viewBox="0 0 50 50" fill="none" xmlns="http://www.w3.org/2000/svg">
<path d="M23.0207 31.1458L19.1665 35C18.354 35.8125 17.0623 35.8125 16.229 35.0208C15.9998 34.7917 15.7707 34.5833 15.5415 34.3542C13.4348 32.2333 11.4917 29.956 9.729 27.5417C8.02067 25.1667 6.64567 22.7917 5.64567 20.4375C4.6665 18.0625 4.1665 15.7917 4.1665 13.625C4.1665 12.2083 4.4165 10.8542 4.9165 9.60416C5.4165 8.33332 6.20817 7.16666 7.31234 6.12499C8.64567 4.81249 10.104 4.16666 11.6457 4.16666C12.229 4.16666 12.8123 4.29166 13.3332 4.54166C13.8748 4.79166 14.354 5.16666 14.729 5.70832L19.5623 12.5208C19.9373 13.0417 20.2082 13.5208 20.3957 13.9792C20.5832 14.4167 20.6873 14.8542 20.6873 15.25C20.6873 15.75 20.5415 16.25 20.2498 16.7292C19.979 17.2083 19.5832 17.7083 19.0832 18.2083L17.4998 19.8542C17.2707 20.0833 17.1665 20.3542 17.1665 20.6875C17.1665 20.8542 17.1873 21 17.229 21.1667C17.2915 21.3333 17.354 21.4583 17.3957 21.5833C17.7707 22.2708 18.4165 23.1667 19.3332 24.25C20.2707 25.3333 21.2707 26.4375 22.354 27.5417C22.5623 27.75 22.7915 27.9583 22.9998 28.1667C23.8332 28.9792 23.854 30.3125 23.0207 31.1458ZM45.7707 38.1875C45.7679 38.9737 45.59 39.7495 45.2498 40.4583C44.8957 41.2083 44.4373 41.9167 43.8332 42.5833C42.8123 43.7083 41.6873 44.5208 40.4165 45.0417C40.3957 45.0417 40.3748 45.0625 40.354 45.0625C39.1248 45.5625 37.7915 45.8333 36.354 45.8333C34.229 45.8333 31.9582 45.3333 29.5623 44.3125C27.1665 43.2917 24.7707 41.9167 22.3957 40.1875C21.5832 39.5833 20.7707 38.9792 19.9998 38.3333L26.8123 31.5208C27.3957 31.9583 27.9165 32.2917 28.354 32.5208C28.4582 32.5625 28.5832 32.625 28.729 32.6875C28.8957 32.75 29.0623 32.7708 29.2498 32.7708C29.604 32.7708 29.8748 32.6458 30.104 32.4167L31.6873 30.8542C32.2082 30.3333 32.7082 29.9375 33.1873 29.6875C33.6665 29.3958 34.1457 29.25 34.6665 29.25C35.0623 29.25 35.479 29.3333 35.9373 29.5208C36.3957 29.7083 36.8748 29.9792 37.3957 30.3333L44.2915 35.2292C44.8332 35.6042 45.2082 36.0417 45.4373 36.5625C45.6457 37.0833 45.7707 37.6042 45.7707 38.1875Z" fill="black"/>
</svg>
