<svg width="75" height="75" viewBox="0 0 75 75" fill="none" xmlns="http://www.w3.org/2000/svg">
<path d="M35.2203 6.39955C34.8083 6.39229 34.3897 6.4341 33.9691 6.52772V6.52467L13.3179 11.1145C10.1139 11.8268 7.8125 14.6983 7.8125 17.981V57.0191C7.8125 60.3025 10.115 63.1735 13.3179 63.8855L33.9691 68.4754V68.4723C37.334 69.2213 40.625 66.5809 40.625 63.1348V11.8652C40.625 8.8499 38.1045 6.4503 35.2203 6.39955ZM45.3125 12.5V14.8438V17.1875V25.6714C46.2813 25.2339 47.3281 25 48.4375 25V32.8125H56.25C56.25 37.0938 52.7188 40.625 48.4375 40.625C47.3281 40.625 46.2813 40.3911 45.3125 39.9536V50H57.0312C58.3281 50 59.375 51.0469 59.375 52.3438C59.375 53.6406 58.3281 54.6875 57.0312 54.6875H45.3125V59.375V61.7188V64.0625H60.1562C64.0117 64.0625 67.1875 60.8867 67.1875 57.0313V19.5313C67.1875 15.6758 64.0117 12.5 60.1562 12.5H45.3125ZM51.5625 21.875C53.6406 21.875 55.6235 22.7046 57.0923 24.1577C58.5454 25.6265 59.375 27.6094 59.375 29.6875H51.5625V21.875ZM19.5312 26.5625H25C29.3078 26.5625 32.8125 30.0672 32.8125 34.375C32.8125 38.6828 29.3078 42.1875 25 42.1875H21.875V47.6563C21.875 48.9516 20.825 50 19.5312 50C18.2375 50 17.1875 48.9516 17.1875 47.6563V28.9063C17.1875 27.6109 18.2375 26.5625 19.5312 26.5625ZM21.875 31.25V37.5H25C26.7234 37.5 28.125 36.0984 28.125 34.375C28.125 32.6516 26.7234 31.25 25 31.25H21.875Z" fill="black"/>
</svg>
