<svg width="75" height="75" viewBox="0 0 75 75" fill="none" xmlns="http://www.w3.org/2000/svg">
<path d="M33.6578 6.39955C33.2458 6.39229 32.8272 6.4341 32.4066 6.52772V6.52467L11.7554 11.1145C8.55141 11.8268 6.25 14.6983 6.25 17.981V57.0191C6.25 60.3025 8.55246 63.1735 11.7554 63.8855L32.4066 68.4754V68.4723C35.7715 69.2213 39.0625 66.5809 39.0625 63.1348V11.8652C39.0625 8.8499 36.542 6.4503 33.6578 6.39955ZM43.75 17.2669V34.671L49.234 38.5468L70.2972 24.0143C70.1566 20.2643 67.0625 17.2669 63.2812 17.2669H43.75ZM22.6562 25.7813C27.475 25.7813 31.25 31.2719 31.25 38.2813C31.25 45.2906 27.475 50.7813 22.6562 50.7813C17.8375 50.7813 14.0625 45.2906 14.0625 38.2813C14.0625 31.2719 17.8375 25.7813 22.6562 25.7813ZM70.3125 29.7028L50.5463 43.3289C50.1556 43.6101 49.6875 43.75 49.2188 43.75C48.75 43.75 48.267 43.6105 47.8607 43.3136L43.75 40.4053V59.4544H63.2812C67.1563 59.4544 70.3125 56.2981 70.3125 52.4231V29.7028ZM22.6562 30.4688C20.8125 30.4688 18.75 33.8094 18.75 38.2813C18.75 42.7531 20.8125 46.0938 22.6562 46.0938C24.5 46.0938 26.5625 42.7531 26.5625 38.2813C26.5625 33.8094 24.5 30.4688 22.6562 30.4688Z" fill="black"/>
</svg>
