<svg width="50" height="51" viewBox="0 0 50 51" fill="none" xmlns="http://www.w3.org/2000/svg">
<path d="M33.729 4.56375H16.2707C8.68734 4.56375 4.1665 9.08458 4.1665 16.6679V34.1054C4.1665 41.7096 8.68734 46.2304 16.2707 46.2304H33.7082C41.2915 46.2304 45.8123 41.7096 45.8123 34.1263V16.6679C45.8332 9.08458 41.3123 4.56375 33.729 4.56375ZM36.1457 19.2513L31.2707 34.9596C30.104 38.6888 24.8748 38.7513 23.6457 35.0429L22.1873 30.7304C21.7915 29.5429 20.854 28.5846 19.6665 28.2096L15.3332 26.7513C11.6665 25.5221 11.7082 20.2513 15.4373 19.1263L31.1457 14.2304C34.229 13.2929 37.1248 16.1888 36.1457 19.2513Z" fill="black"/>
</svg>
