<svg width="69" height="69" viewBox="0 0 69 69" fill="none" xmlns="http://www.w3.org/2000/svg">
<path d="M15.0938 7.1875C9.94175 7.1875 5.75 11.3792 5.75 16.5312V48.0861C5.75 49.4689 6.51565 50.719 7.74902 51.3457C8.27515 51.6145 8.84476 51.7444 9.41113 51.7444C10.1673 51.7444 10.9179 51.5096 11.5562 51.0453L24.4178 41.6875H42.4062C47.5583 41.6875 51.75 37.4958 51.75 32.3438V16.5312C51.75 11.3792 47.5583 7.1875 42.4062 7.1875H15.0938ZM19.4062 17.25H38.0938C39.284 17.25 40.25 18.2146 40.25 19.4062C40.25 20.5979 39.284 21.5625 38.0938 21.5625H19.4062C18.216 21.5625 17.25 20.5979 17.25 19.4062C17.25 18.2146 18.216 17.25 19.4062 17.25ZM54.625 20.1615V32.3438C54.625 39.0813 49.1438 44.5625 42.4062 44.5625H25.3556L18.345 49.6611C19.9176 52.6123 23.0244 54.625 26.5938 54.625H44.5822L57.4438 63.98C58.0821 64.4457 58.8327 64.6819 59.5889 64.6819C60.1552 64.6819 60.7249 64.5492 61.251 64.2804C62.4829 63.6536 63.25 62.4036 63.25 61.0208V29.4688C63.25 24.5597 59.4421 20.5309 54.625 20.1615ZM19.4062 27.3125H33.7812C34.9715 27.3125 35.9375 28.2771 35.9375 29.4688C35.9375 30.6604 34.9715 31.625 33.7812 31.625H19.4062C18.216 31.625 17.25 30.6604 17.25 29.4688C17.25 28.2771 18.216 27.3125 19.4062 27.3125Z" fill="#262626"/>
</svg>
