<svg width="75" height="75" viewBox="0 0 75 75" fill="none" xmlns="http://www.w3.org/2000/svg">
<path d="M36.8378 6.35377C36.4285 6.34239 36.0113 6.37877 35.5927 6.46669L13.3942 11.142C10.156 11.8255 7.8125 14.7089 7.8125 18.0206V56.9794C7.8125 60.2903 10.1537 63.1763 13.3942 63.858L35.5927 68.5303C38.9427 69.2364 42.1875 66.6032 42.1875 63.1806V11.8195C42.1875 8.82469 39.7029 6.43346 36.8378 6.35377ZM46.875 12.5V14.8438V17.1875V23.4375H57.0312C58.3281 23.4375 59.375 24.4844 59.375 25.7813C59.375 27.0781 58.3281 28.125 57.0312 28.125H46.875V35.9375H57.0312C58.3281 35.9375 59.375 36.9844 59.375 38.2813C59.375 39.5781 58.3281 40.625 57.0312 40.625H46.875V48.4375H57.0312C58.3281 48.4375 59.375 49.4844 59.375 50.7813C59.375 52.0781 58.3281 53.125 57.0312 53.125H46.875V59.375V61.7188V64.0625H60.1562C64.0117 64.0625 67.1875 60.8867 67.1875 57.0313V19.5313C67.1875 15.6758 64.0117 12.5 60.1562 12.5H46.875ZM16.4917 26.5625C17.5833 26.6008 18.5281 27.4082 18.7195 28.5156L20.4071 38.6414L22.0306 34.3292C22.3744 33.423 23.25 32.8125 24.2188 32.8125C25.1875 32.8125 26.0631 33.423 26.4069 34.3292L28.0304 38.6414L29.718 28.5156C29.9368 27.25 31.1406 26.3743 32.4219 26.593C33.6875 26.8118 34.5632 28.0156 34.3445 29.2969L31.2195 48.0469C31.0476 49.0938 30.1885 49.891 29.126 49.9848C29.0635 50.0004 28.9844 50 28.9062 50C27.9375 50 27.0619 49.4052 26.7181 48.4833L24.2188 41.8274L21.7194 48.4833C21.36 49.4677 20.3584 50.0941 19.3115 49.9848C18.249 49.891 17.3899 49.0938 17.218 48.0469L14.093 29.2969C13.8743 28.0156 14.75 26.8118 16.0156 26.593C16.1758 26.5657 16.3358 26.557 16.4917 26.5625Z" fill="black"/>
</svg>
