<svg width="67" height="69" viewBox="0 0 67 69" fill="none" xmlns="http://www.w3.org/2000/svg">
<path d="M33.4999 5.75C18.1067 5.75 5.58325 18.6473 5.58325 34.5C5.58325 50.3527 18.1067 63.25 33.4999 63.25C48.8932 63.25 61.4166 50.3527 61.4166 34.5C61.4166 18.6473 48.8932 5.75 33.4999 5.75ZM39.8663 43.9314C39.4573 44.3526 38.9213 44.5625 38.3853 44.5625C37.8493 44.5625 37.3133 44.3526 36.9044 43.9314L29.9252 36.7439C29.533 36.3386 29.3124 35.7909 29.3124 35.2188V19.4062C29.3124 18.2146 30.249 17.25 31.4062 17.25C32.5633 17.25 33.4999 18.2146 33.4999 19.4062V34.3261L39.8663 40.8825C40.6829 41.7234 40.6829 43.0891 39.8663 43.9314Z" fill="#262626"/>
</svg>
