<svg width="75" height="75" viewBox="0 0 75 75" fill="none" xmlns="http://www.w3.org/2000/svg">
<path d="M36.8378 6.35377C36.4285 6.34239 36.0113 6.37877 35.5927 6.46669L13.3942 11.142C10.156 11.8255 7.8125 14.7089 7.8125 18.0206V56.9794C7.8125 60.2903 10.1537 63.1763 13.3942 63.858L35.5927 68.5303C38.9427 69.2364 42.1875 66.6032 42.1875 63.1806V11.8195C42.1875 8.82469 39.7029 6.43346 36.8378 6.35377ZM46.875 12.5V14.8438V17.1875V59.375V61.7188V64.0625H60.1562C64.0117 64.0625 67.1875 60.8867 67.1875 57.0313V19.5313C67.1875 15.6758 64.0117 12.5 60.1562 12.5H46.875ZM53.9062 23.4375H58.5938C59.8875 23.4375 60.9375 24.486 60.9375 25.7813C60.9375 27.0766 59.8875 28.125 58.5938 28.125H53.9062C52.6125 28.125 51.5625 27.0766 51.5625 25.7813C51.5625 24.486 52.6125 23.4375 53.9062 23.4375ZM19.5892 26.5595C20.3438 26.5793 21.0754 26.9562 21.5149 27.6398L25 33.1421L28.4851 27.6398C29.1882 26.546 30.6415 26.2351 31.7352 26.9226C32.8134 27.6257 33.1399 29.079 32.4524 30.1727L27.7802 37.5L32.4524 44.8273C33.1399 45.921 32.8134 47.3743 31.7352 48.0774C31.3446 48.3118 30.9063 48.4375 30.4688 48.4375C29.7031 48.4375 28.9382 48.0477 28.4851 47.3602L25 41.8579L21.5149 47.3602C21.0618 48.0477 20.2969 48.4375 19.5312 48.4375C19.0937 48.4375 18.6554 48.3118 18.2648 48.0774C17.1866 47.3743 16.8601 45.921 17.5476 44.8273L22.2198 37.5L17.5476 30.1727C16.8601 29.079 17.1866 27.6257 18.2648 26.9226C18.6749 26.6648 19.1365 26.5476 19.5892 26.5595ZM53.9062 35.9375H58.5938C59.8875 35.9375 60.9375 36.986 60.9375 38.2813C60.9375 39.5766 59.8875 40.625 58.5938 40.625H53.9062C52.6125 40.625 51.5625 39.5766 51.5625 38.2813C51.5625 36.986 52.6125 35.9375 53.9062 35.9375ZM53.9062 48.4375H58.5938C59.8875 48.4375 60.9375 49.4859 60.9375 50.7813C60.9375 52.0766 59.8875 53.125 58.5938 53.125H53.9062C52.6125 53.125 51.5625 52.0766 51.5625 50.7813C51.5625 49.4859 52.6125 48.4375 53.9062 48.4375Z" fill="black"/>
</svg>
