<svg width="72" height="72" viewBox="0 0 72 72" fill="none" xmlns="http://www.w3.org/2000/svg">
<path d="M18.75 9C13.3921 9 9 13.3921 9 18.75V53.25C9 58.6079 13.3921 63 18.75 63H53.25C58.6079 63 63 58.6079 63 53.25V18.75C63 13.3921 58.6079 9 53.25 9H18.75ZM13.5 24H58.5V53.25C58.5 56.1751 56.1751 58.5 53.25 58.5H18.75C15.8249 58.5 13.5 56.1751 13.5 53.25V24ZM26.2266 32.9766C25.7788 32.9767 25.3412 33.1104 24.9698 33.3606C24.5985 33.6108 24.3102 33.9661 24.1419 34.381C23.9736 34.7959 23.9329 35.2517 24.0251 35.6899C24.1172 36.1281 24.338 36.5288 24.6592 36.8408L29.0684 41.25L24.6592 45.6592C24.4432 45.8665 24.2708 46.1148 24.1521 46.3896C24.0333 46.6644 23.9706 46.9601 23.9675 47.2595C23.9645 47.5588 24.0212 47.8557 24.1344 48.1329C24.2475 48.41 24.4148 48.6618 24.6265 48.8735C24.8382 49.0852 25.09 49.2525 25.3671 49.3656C25.6443 49.4788 25.9412 49.5355 26.2405 49.5325C26.5399 49.5294 26.8356 49.4667 27.1104 49.3479C27.3852 49.2292 27.6335 49.0568 27.8408 48.8408L33.8408 42.8408C34.2626 42.4188 34.4996 41.8466 34.4996 41.25C34.4996 40.6534 34.2626 40.0812 33.8408 39.6592L27.8408 33.6592C27.6311 33.4432 27.3802 33.2715 27.1029 33.1542C26.8256 33.037 26.5276 32.9766 26.2266 32.9766ZM38.25 45C37.9518 44.9958 37.6558 45.0509 37.3792 45.162C37.1025 45.2732 36.8507 45.4383 36.6383 45.6476C36.426 45.857 36.2574 46.1065 36.1423 46.3815C36.0272 46.6566 35.968 46.9518 35.968 47.25C35.968 47.5482 36.0272 47.8434 36.1423 48.1185C36.2574 48.3935 36.426 48.643 36.6383 48.8524C36.8507 49.0617 37.1025 49.2268 37.3792 49.338C37.6558 49.4491 37.9518 49.5042 38.25 49.5H47.25C47.5482 49.5042 47.8442 49.4491 48.1208 49.338C48.3975 49.2268 48.6493 49.0617 48.8617 48.8524C49.074 48.643 49.2426 48.3935 49.3577 48.1185C49.4728 47.8434 49.532 47.5482 49.532 47.25C49.532 46.9518 49.4728 46.6566 49.3577 46.3815C49.2426 46.1065 49.074 45.857 48.8617 45.6476C48.6493 45.4383 48.3975 45.2732 48.1208 45.162C47.8442 45.0509 47.5482 44.9958 47.25 45H38.25Z" fill="#0C0C0C"/>
</svg>
