<svg width="56" height="56" viewBox="0 0 56 56" fill="none" xmlns="http://www.w3.org/2000/svg">
<path d="M11.2001 7.46667C9.13746 7.46667 7.4668 9.13734 7.4668 11.2V44.8C7.4668 46.8627 9.13746 48.5333 11.2001 48.5333H44.8001C46.8628 48.5333 48.5335 46.8627 48.5335 44.8V11.2C48.5335 9.13734 46.8628 7.46667 44.8001 7.46667H11.2001ZM19.4397 18.9037H23.1402L29.6845 37.3188H26.1517L24.5949 32.6083H17.8173L16.235 37.3188H12.9064L19.4397 18.9037ZM21.1095 22.4146L18.5829 30.0052H23.8293L21.3283 22.4146H21.1095ZM37.6215 23.0781C41.6031 23.0781 43.9908 25.7184 43.9908 30.1219V31.1427H34.2418V31.3068C34.3183 33.6289 35.6568 35.0839 37.7382 35.0839C39.3062 35.0839 40.3925 34.5102 40.8517 33.476H43.8486C43.2512 36.0166 40.9379 37.5995 37.647 37.5995C33.5385 37.5995 31.0626 34.8792 31.0626 30.388C31.0626 25.8968 33.5783 23.0781 37.6215 23.0781ZM37.6105 25.5865C35.7215 25.5865 34.3946 26.9405 34.2527 28.9807H40.8262C40.7608 26.9143 39.5089 25.5865 37.6105 25.5865Z" fill="black"/>
</svg>
