<svg width="38" height="38" viewBox="0 0 38 38" fill="none" xmlns="http://www.w3.org/2000/svg">
<path fill-rule="evenodd" clip-rule="evenodd" d="M1.60369 36.4525L8.61838 34.6123L9.2951 35.0141C12.1407 36.7026 15.4026 37.5961 18.7284 37.5975H18.7359C28.9512 37.5975 37.2653 29.2831 37.2695 19.0636C37.2714 14.1112 35.3454 9.45483 31.8462 5.95155C28.347 2.44827 23.6935 0.517954 18.7432 0.516235C8.51994 0.516235 0.205724 8.82983 0.201662 19.0486C0.200255 22.5506 1.1801 25.9611 3.03541 28.9119L3.47604 29.6131L1.60369 36.4525ZM29.2067 23.8658C29.5953 24.0536 29.8578 24.1803 29.9698 24.3673C30.109 24.5997 30.109 25.7153 29.6449 27.017C29.1804 28.3184 26.9546 29.5062 25.884 29.6661C24.9242 29.8097 23.7095 29.8695 22.3748 29.4453C21.5654 29.1886 20.5278 28.8458 19.1984 28.2717C13.9751 26.0162 10.4451 20.9537 9.77807 19.9969C9.73135 19.9298 9.69854 19.883 9.68041 19.8587L9.67588 19.8526C9.38104 19.4592 7.40526 16.8231 7.40526 14.095C7.40526 11.5286 8.66604 10.1833 9.24635 9.56405C9.28604 9.5217 9.3226 9.48264 9.35541 9.44686C9.86604 8.88905 10.4698 8.74967 10.8412 8.74967C11.2126 8.74967 11.5843 8.75311 11.909 8.76936C11.949 8.77139 11.9907 8.77108 12.0339 8.77092C12.3585 8.76889 12.7632 8.76655 13.1626 9.72577C13.3162 10.095 13.541 10.6422 13.7781 11.2192C14.2574 12.3865 14.7873 13.6762 14.8804 13.8628C15.0198 14.1417 15.1126 14.467 14.9268 14.839C14.899 14.8948 14.8732 14.9475 14.8485 14.9976C14.7092 15.2825 14.6065 15.492 14.3698 15.7684C14.2767 15.8772 14.1804 15.9944 14.0842 16.1114C13.8926 16.3448 13.7009 16.5783 13.534 16.7445C13.2551 17.0223 12.9646 17.3239 13.2896 17.8817C13.6146 18.4395 14.7329 20.2639 16.3893 21.7414C18.1698 23.3295 19.7173 24.0008 20.5017 24.3411C20.6548 24.4075 20.7789 24.4612 20.8699 24.5069C21.4268 24.7858 21.752 24.7392 22.077 24.3673C22.402 23.9956 23.4698 22.7405 23.8412 22.1826C24.2124 21.6251 24.5842 21.718 25.0948 21.9039C25.6056 22.09 28.3448 23.4376 28.902 23.7165C29.0107 23.7711 29.1124 23.8201 29.2067 23.8658Z" fill="black"/>
</svg>
