<svg width="75" height="75" viewBox="0 0 75 75" fill="none" xmlns="http://www.w3.org/2000/svg">
<path fill-rule="evenodd" clip-rule="evenodd" d="M0 37.5C0 58.2106 16.7894 75 37.5 75C58.2106 75 75 58.2106 75 37.5C75 16.7894 58.2106 0 37.5 0C16.7894 0 0 16.7894 0 37.5ZM61.0345 36.0648C61.0297 48.3567 51.0305 58.3583 38.7361 58.3633H38.7269C34.9948 58.362 31.3278 57.4256 28.0708 55.6492L16.25 58.75L19.4134 47.195C17.462 43.8133 16.4353 39.9773 16.4369 36.0472C16.4419 23.7527 26.445 13.75 38.7358 13.75C44.7009 13.7526 50.2997 16.0748 54.5097 20.2897C58.7197 24.5044 61.037 30.1067 61.0345 36.0648Z" fill="black"/>
</svg>
