<svg width="73" height="73" viewBox="0 0 73 73" fill="none" xmlns="http://www.w3.org/2000/svg">
<path fill-rule="evenodd" clip-rule="evenodd" d="M36.5 0C16.3417 0 0 16.3417 0 36.5C0 56.6583 16.3417 73 36.5 73C56.6583 73 73 56.6583 73 36.5C73 16.3417 56.6583 0 36.5 0ZM17.5224 30.2308H25.7941V55.084H17.5224V30.2308ZM26.339 22.5429C26.2853 20.106 24.5428 18.25 21.7129 18.25C18.8833 18.25 17.0333 20.106 17.0333 22.5429C17.0333 24.9292 18.8287 26.8386 21.6056 26.8386H21.6585C24.5428 26.8386 26.339 24.9292 26.339 22.5429ZM46.1012 29.6473C51.5444 29.6473 55.6251 33.2003 55.6251 40.8339L55.6248 55.084H47.3534V41.7875C47.3534 38.4477 46.1564 36.1688 43.162 36.1688C40.8768 36.1688 39.5157 37.7051 38.9178 39.1891C38.6991 39.7208 38.6454 40.4618 38.6454 41.2045V55.0846H30.3727C30.3727 55.0846 30.4818 32.5636 30.3727 30.2316H38.6454V33.7517C39.7432 32.0595 41.7095 29.6473 46.1012 29.6473Z" fill="black"/>
</svg>
