<svg width="67" height="77" viewBox="0 0 67 77" fill="none" xmlns="http://www.w3.org/2000/svg">
<path d="M32.995 0L0 19.778V57.9925L1.55526 58.8552L33.1124 76.3936L66.1074 56.6157V18.4011L32.995 0ZM33.1124 6.97281L60.0976 21.9703V53.1765L32.995 69.4208L6.00976 54.4234V23.2171L33.1124 6.97281ZM33.0537 20.0439C27.2943 20.0439 22.5924 22.3274 19.5376 25.7876C16.4828 29.2478 15.0244 33.7426 15.0244 38.1968C15.0244 42.651 16.4828 47.1458 19.5376 50.606C22.5924 54.0662 27.2943 56.3497 33.0537 56.3497C42.9754 56.3497 51.083 48.1866 51.083 38.1968C51.083 28.2071 42.9754 20.0439 33.0537 20.0439ZM33.0537 26.0948C39.7275 26.0948 45.0732 31.4772 45.0732 38.1968C45.0732 44.9164 39.7275 50.2988 33.0537 50.2988C28.7968 50.2988 25.9865 48.8004 24.0332 46.5878C22.0798 44.3752 21.0342 41.3063 21.0342 38.1968C21.0342 35.0873 22.0798 32.0184 24.0332 29.8058C25.9865 27.5932 28.7968 26.0948 33.0537 26.0948Z" fill="black"/>
</svg>
